<svg xmlns="http://www.w3.org/2000/svg" viewBox="0 0 156 158" width="156" height="158" role="img" aria-label="Comme à la Maison — logo tête de taureau (élargi 150%)" style="color:#c2a06b"><metadata><rdf:RDF xmlns:rdf="http://www.w3.org/1999/02/22-rdf-syntax-ns#" xmlns:dc="http://purl.org/dc/elements/1.1/"><rdf:Description><dc:creator>RealFaviconGenerator</dc:creator><dc:source>https://realfavicongenerator.net</dc:source></rdf:Description></rdf:RDF></metadata><g transform="translate(-2.4975 1.24) scale(1.5 1)" fill="currentColor">
    <path d="M 73.81 14.95 C 73.89 13.32 74.92 11.97 75.69 10.60 C 76.99 16.08 76.93 21.74 77.72 27.30 C 78.40 32.52 79.48 37.74 79.31 43.04 C 79.20 47.64 77.13 51.84 75.31 55.97 C 80.76 53.95 86.35 50.94 92.33 51.71 C 96.92 52.54 97.48 58.23 97.23 62.01 C 96.78 65.85 96.01 71.21 91.73 72.54 C 87.25 72.30 83.39 69.50 79.21 68.07 C 76.47 78.21 75.19 88.68 72.87 98.92 C 71.59 107.66 68.05 116.33 69.64 125.28 C 70.60 130.83 70.40 137.10 66.68 141.66 C 64.19 144.92 59.67 144.71 55.99 144.82 C 52.08 144.74 47.30 144.78 44.71 141.30 C 41.14 136.58 41.37 130.33 41.69 124.72 C 42.26 117.90 39.48 111.50 38.25 104.91 C 36.68 96.91 34.32 89.09 32.93 81.06 C 32.15 76.42 30.98 71.84 29.15 67.50 C 25.44 69.24 22.01 71.78 17.97 72.68 C 13.46 73.09 11.57 67.93 10.72 64.37 C 10.00 60.47 9.85 55.05 13.66 52.70 C 20.43 50.41 26.97 54.29 32.98 56.94 C 30.95 51.85 28.39 46.68 28.81 41.03 C 29.16 34.01 29.57 26.99 29.99 19.98 C 30.35 17.08 30.01 13.44 32.76 11.57 C 34.03 19.16 32.60 26.87 33.59 34.48 C 34.07 37.12 34.86 40.28 37.42 41.62 C 41.09 42.68 44.97 42.31 48.75 42.51 C 55.28 42.56 61.90 43.50 68.38 42.31 C 70.98 41.95 72.76 39.69 73.19 37.21 C 74.64 29.87 73.25 22.35 73.81 14.95 M 67.09 47.64 C 68.79 49.32 70.49 51.01 72.21 52.67 C 76.07 49.67 76.28 44.72 76.32 40.23 C 73.68 43.20 70.56 45.69 67.09 47.64 M 31.50 41.38 C 31.79 44.93 31.73 49.04 34.48 51.72 C 37.58 53.19 39.73 49.64 41.03 47.34 C 37.60 45.78 34.45 43.70 31.50 41.38 M 48.79 47.76 C 41.76 50.86 36.29 56.84 32.83 63.61 C 37.88 66.08 43.33 68.62 46.40 73.58 C 52.91 83.55 54.10 96.27 51.86 107.76 C 50.83 113.66 47.46 118.70 45.08 124.09 C 42.90 128.86 43.76 134.87 47.16 138.85 C 49.06 141.14 52.23 140.46 54.81 140.38 C 52.12 136.72 46.63 133.77 48.03 128.47 C 52.63 128.34 57.20 127.64 61.80 127.62 C 64.73 127.21 65.67 131.26 64.23 133.23 C 62.39 136.00 59.76 138.12 57.53 140.55 C 60.22 140.51 63.51 140.80 65.25 138.27 C 67.94 134.11 68.17 128.41 66.04 123.97 C 63.49 119.09 60.29 114.46 59.01 109.02 C 55.94 96.84 56.51 83.08 63.13 72.12 C 65.76 67.55 70.58 65.08 75.01 62.59 C 71.69 56.93 67.21 51.78 61.40 48.60 C 57.58 46.48 52.84 45.94 48.79 47.76 M 14.67 56.57 C 11.20 60.09 13.84 65.67 16.17 69.16 C 21.62 67.61 26.89 65.14 30.89 61.04 C 26.41 57.50 20.36 55.07 14.67 56.57 M 78.17 59.28 C 78.19 60.39 78.21 61.49 78.23 62.60 C 82.35 65.05 86.71 67.06 91.21 68.73 C 92.68 66.73 94.30 64.62 94.35 62.01 C 94.56 59.84 94.70 56.28 91.80 55.94 C 87.01 55.37 82.42 57.33 78.17 59.28 M 63.31 78.30 C 58.08 90.78 58.65 106.00 66.01 117.52 C 68.12 110.63 69.22 103.48 69.99 96.33 C 67.35 96.15 64.70 95.95 62.05 95.74 C 62.47 91.52 62.76 86.92 65.52 83.47 C 67.64 81.27 70.73 80.47 73.46 79.31 C 74.52 75.58 75.08 71.73 75.15 67.85 C 69.72 69.14 65.28 73.08 63.31 78.30 M 33.76 68.79 C 34.03 72.01 33.85 75.50 35.50 78.40 C 37.89 80.52 41.19 81.28 43.54 83.46 C 46.58 86.87 46.76 91.69 46.97 96.01 C 44.34 96.08 41.70 96.08 39.07 96.03 C 40.72 103.54 41.99 111.15 44.23 118.52 C 46.14 115.78 47.90 112.87 48.65 109.59 C 51.21 99.05 50.63 87.39 45.19 77.81 C 42.91 73.27 38.70 69.99 33.76 68.79 M 37.70 83.83 C 38.17 86.03 38.03 88.62 39.62 90.40 C 40.92 91.39 42.52 91.85 44.00 92.48 C 43.69 88.53 41.48 85.21 37.70 83.83 M 67.83 85.81 C 65.80 87.56 65.61 90.37 66.57 92.74 C 69.35 90.76 71.26 87.92 72.09 84.62 C 70.66 84.97 69.20 85.25 67.83 85.81 M 51.95 132.42 C 53.53 133.58 55.12 134.73 56.72 135.86 C 57.85 134.72 58.97 133.59 60.09 132.46 C 57.38 132.38 54.66 132.37 51.95 132.42 Z"></path>
  </g></svg>